<svg xmlns="http://www.w3.org/2000/svg" width="1200" height="360" viewBox="0 0 1200 360" role="img" aria-labelledby="title desc">
  <title id="title">AgentOStudio Product Demos</title><desc id="desc">Banner para abrir a demonstração interativa do Sistema Escolar AgentOStudio</desc>
  <defs><linearGradient id="bg" x1="0" y1="0" x2="1" y2="1"><stop stop-color="#071426"/><stop offset=".55" stop-color="#102a5c"/><stop offset="1" stop-color="#082f49"/></linearGradient><linearGradient id="accent"><stop stop-color="#38bdf8"/><stop offset="1" stop-color="#fb923c"/></linearGradient><filter id="glow"><feGaussianBlur stdDeviation="10" result="b"/><feMerge><feMergeNode in="b"/><feMergeNode in="SourceGraphic"/></feMerge></filter></defs>
  <rect width="1200" height="360" rx="28" fill="url(#bg)"/><circle cx="1070" cy="45" r="165" fill="#0ea5e9" opacity=".09"/><circle cx="1035" cy="325" r="125" fill="#f97316" opacity=".08"/><path d="M0 318C200 275 330 355 510 315S820 260 1200 315V360H0Z" fill="#38bdf8" opacity=".06"/>
  <g transform="translate(70 62)"><rect width="86" height="86" rx="25" fill="#0b1d38" stroke="#38bdf8" stroke-width="2"/><path d="M20 55L43 19l23 36H54L43 37 32 55Z" fill="url(#accent)" filter="url(#glow)"/><circle cx="43" cy="43" r="34" fill="none" stroke="#60a5fa" stroke-width="2" stroke-dasharray="42 15" opacity=".75"/></g>
  <text x="180" y="92" fill="#e2e8f0" font-family="Segoe UI,Arial,sans-serif" font-size="25" font-weight="700">AGENT<tspan fill="#38bdf8">O</tspan>STUDIO</text><text x="70" y="188" fill="#fff" font-family="Segoe UI,Arial,sans-serif" font-size="48" font-weight="800">Veja o sistema funcionando.</text><text x="70" y="232" fill="#bfdbfe" font-family="Segoe UI,Arial,sans-serif" font-size="22">Demonstração pública, interativa e segura · 100% dados fictícios</text>
  <g transform="translate(70 267)"><rect width="350" height="58" rx="16" fill="url(#accent)"/><text x="30" y="38" fill="#06101f" font-family="Segoe UI,Arial,sans-serif" font-size="20" font-weight="800">▶ ABRIR DEMONSTRAÇÃO AGORA</text></g>
  <g transform="translate(865 93)" fill="none" stroke="#7dd3fc" stroke-width="2"><rect width="250" height="152" rx="15" fill="#071426" fill-opacity=".75"/><rect x="20" y="22" width="210" height="26" rx="7" fill="#1d4ed8" stroke="none"/><rect x="20" y="66" width="60" height="52" rx="8" fill="#172554"/><rect x="95" y="66" width="60" height="52" rx="8" fill="#172554"/><rect x="170" y="66" width="60" height="52" rx="8" fill="#172554"/><path d="M22 137h205" opacity=".5"/></g>
  <circle cx="1108" cy="269" r="7" fill="#22c55e"><animate attributeName="opacity" values="1;.25;1" dur="1.6s" repeatCount="indefinite"/></circle><text x="865" y="278" fill="#86efac" font-family="Segoe UI,Arial,sans-serif" font-size="15" font-weight="700">● DEMONSTRAÇÃO ONLINE</text>
</svg>
